# xmcd
#
# Track frame offsets: 
#        150
#        15826
#        27329
#        47649
#        64701
#        73765
#        93248
#        107387
#        121865
#        137880
#        150626
#
# Disc length: 2343 seconds
#
# Revision: 0
# Processed by: cddbd v1.5.2PL0 Copyright (c) Steve Scherf et al.
# Submitted via: ExactAudioCopyFreeDBPlugin 1.0
#
DISCID=8309250b
DTITLE=John Denver - John Denver
DYEAR=1979
DGENRE=Country
TTITLE0=Downhill Stuff
TTITLE1=Sweet Melinda
TTITLE2=What's On Your Mind
TTITLE3=Joseph and Joe
TTITLE4=Life So Good
TTITLE5=Berkeley Woman
TTITLE6=Johnny B.Goode
TTITLE7=You're So Beatiful
TTITLE8=Southwind
TTITLE9=Garden Song
TTITLE10=Songs Of
EXTD=
EXTT0=
EXTT1=
EXTT2=
EXTT3=
EXTT4=
EXTT5=
EXTT6=
EXTT7=
EXTT8=
EXTT9=
EXTT10=
PLAYORDER=
